<svg width="30" height="30" viewBox="0 0 30 30" fill="none" xmlns="http://www.w3.org/2000/svg">
<rect width="30" height="30" rx="15" fill="#3361FF" fill-opacity="0.1"/>
<path fill-rule="evenodd" clip-rule="evenodd" d="M15.0004 7C11.9044 7 9.40039 9.504 9.40039 12.6C9.40039 15.936 12.9364 20.536 14.3924 22.288C14.7124 22.672 15.2964 22.672 15.6164 22.288C17.0644 20.536 20.6004 15.936 20.6004 12.6C20.6004 9.504 18.0964 7 15.0004 7ZM15.0004 14.6C13.8964 14.6 13.0004 13.704 13.0004 12.6C13.0004 11.496 13.8964 10.6 15.0004 10.6C16.1044 10.6 17.0004 11.496 17.0004 12.6C17.0004 13.704 16.1044 14.6 15.0004 14.6Z" fill="#86AFD8"/>
</svg>
