<svg width="30" height="30" viewBox="0 0 30 30" fill="none" xmlns="http://www.w3.org/2000/svg">
<rect width="30" height="30" rx="15" fill="#3361FF" fill-opacity="0.1"/>
<path fill-rule="evenodd" clip-rule="evenodd" d="M21.4 8.59998H8.6C7.712 8.59998 7.008 9.31198 7.008 10.2L7 19.8C7 20.688 7.712 21.4 8.6 21.4H21.4C22.288 21.4 23 20.688 23 19.8V10.2C23 9.31198 22.288 8.59998 21.4 8.59998ZM20.6 19.8H9.4C8.96 19.8 8.6 19.44 8.6 19V15H21.4V19C21.4 19.44 21.04 19.8 20.6 19.8ZM21.4 11.8H8.6V10.2H21.4V11.8Z" fill="#86AFD8"/>
</svg>
