<svg width="30" height="30" viewBox="0 0 30 30" fill="none" xmlns="http://www.w3.org/2000/svg">
<rect width="30" height="30" rx="15" fill="#3361FF" fill-opacity="0.1"/>
<path fill-rule="evenodd" clip-rule="evenodd" d="M15.8 18.2H14.2C13.76 18.2 13.4 17.84 13.4 17.4H7.808V20.6C7.808 21.48 8.528 22.2 9.408 22.2H20.6C21.48 22.2 22.2 21.48 22.2 20.6V17.4H16.6C16.6 17.84 16.24 18.2 15.8 18.2ZM21.4 11H18.2C18.2 9.23205 16.768 7.80005 15 7.80005C13.232 7.80005 11.8 9.23205 11.8 11H8.6C7.72 11 7 11.72 7 12.6V15C7 15.888 7.712 16.6 8.6 16.6H13.4V15.8C13.4 15.36 13.76 15 14.2 15H15.8C16.24 15 16.6 15.36 16.6 15.8V16.6H21.4C22.28 16.6 23 15.88 23 15V12.6C23 11.72 22.28 11 21.4 11ZM13.4 11C13.4 10.12 14.12 9.40005 15 9.40005C15.88 9.40005 16.6 10.12 16.6 11H13.392H13.4Z" fill="#86AFD8"/>
</svg>
