<svg width="30" height="30" viewBox="0 0 30 30" fill="none" xmlns="http://www.w3.org/2000/svg">
<rect width="30" height="30" rx="15" fill="#3361FF" fill-opacity="0.1"/>
<path fill-rule="evenodd" clip-rule="evenodd" d="M8.5998 15.8H13.3998C13.8398 15.8 14.1998 15.44 14.1998 15V8.60005C14.1998 8.16005 13.8398 7.80005 13.3998 7.80005H8.5998C8.1598 7.80005 7.7998 8.16005 7.7998 8.60005V15C7.7998 15.44 8.1598 15.8 8.5998 15.8ZM8.5998 22.2H13.3998C13.8398 22.2 14.1998 21.84 14.1998 21.4V18.2C14.1998 17.76 13.8398 17.4 13.3998 17.4H8.5998C8.1598 17.4 7.7998 17.76 7.7998 18.2V21.4C7.7998 21.84 8.1598 22.2 8.5998 22.2ZM16.5998 22.2H21.3998C21.8398 22.2 22.1998 21.84 22.1998 21.4V15C22.1998 14.56 21.8398 14.2 21.3998 14.2H16.5998C16.1598 14.2 15.7998 14.56 15.7998 15V21.4C15.7998 21.84 16.1598 22.2 16.5998 22.2ZM15.7998 8.60005V11.8C15.7998 12.24 16.1598 12.6 16.5998 12.6H21.3998C21.8398 12.6 22.1998 12.24 22.1998 11.8V8.60005C22.1998 8.16005 21.8398 7.80005 21.3998 7.80005H16.5998C16.1598 7.80005 15.7998 8.16005 15.7998 8.60005Z" fill="#86AFD8"/>
</svg>
