<svg width="42" height="42" viewBox="0 0 42 42" fill="none" xmlns="http://www.w3.org/2000/svg">
<g filter="url(#filter0_d_3369_83026)">
<rect x="6" y="4" width="30" height="30" rx="15" fill="white"/>
<path fill-rule="evenodd" clip-rule="evenodd" d="M21 11C16.584 11 13 14.584 13 19C13 23.416 16.584 27 21 27C25.416 27 29 23.416 29 19C29 14.584 25.416 11 21 11ZM24.2 19.8H21.8V22.2C21.8 22.64 21.44 23 21 23C20.56 23 20.2 22.64 20.2 22.2V19.8H17.8C17.36 19.8 17 19.44 17 19C17 18.56 17.36 18.2 17.8 18.2H20.2V15.8C20.2 15.36 20.56 15 21 15C21.44 15 21.8 15.36 21.8 15.8V18.2H24.2C24.64 18.2 25 18.56 25 19C25 19.44 24.64 19.8 24.2 19.8Z" fill="#C3CAD9"/>
<rect x="6" y="4" width="30" height="30" rx="15" stroke="#ADB8CC" stroke-width="2"/>
</g>
<defs>
<filter id="filter0_d_3369_83026" x="0" y="0" width="42" height="42" filterUnits="userSpaceOnUse" color-interpolation-filters="sRGB">
<feFlood flood-opacity="0" result="BackgroundImageFix"/>
<feColorMatrix in="SourceAlpha" type="matrix" values="0 0 0 0 0 0 0 0 0 0 0 0 0 0 0 0 0 0 127 0" result="hardAlpha"/>
<feOffset dy="2"/>
<feGaussianBlur stdDeviation="2.5"/>
<feColorMatrix type="matrix" values="0 0 0 0 0.14902 0 0 0 0 0.2 0 0 0 0 0.301961 0 0 0 0.03 0"/>
<feBlend mode="normal" in2="BackgroundImageFix" result="effect1_dropShadow_3369_83026"/>
<feBlend mode="normal" in="SourceGraphic" in2="effect1_dropShadow_3369_83026" result="shape"/>
</filter>
</defs>
</svg>
